<?xml version="1.0" encoding="UTF-8"?>
<!DOCTYPE svg PUBLIC "-//W3C//DTD SVG 1.1//EN" "http://www.w3.org/Graphics/SVG/1.1/DTD/svg11.dtd">
<!-- Creator: CorelDRAW -->
<svg xmlns="http://www.w3.org/2000/svg" xml:space="preserve" width="4239px" height="588px" version="1.1" style="shape-rendering:geometricPrecision; text-rendering:geometricPrecision; image-rendering:optimizeQuality; fill-rule:evenodd; clip-rule:evenodd"
viewBox="0 0 2560.72 355.19"
 xmlns:xlink="http://www.w3.org/1999/xlink"
 xmlns:xodm="http://www.corel.com/coreldraw/odm/2003">
 <defs>
  <style type="text/css">
   <![CDATA[
    .fil0 {fill:white}
   ]]>
  </style>
 </defs>
 <g id="Слой_x0020_1">
  <metadata id="CorelCorpID_0Corel-Layer"/>
  <path class="fil0" d="M1473.54 41.64c-23.96,27.62 -36.31,72.39 -36.31,134.09 0,61.3 12.35,106.57 36.31,135.71 25.42,29.24 65.36,43.75 121.28,43.75 55.93,0 95.87,-14.72 121.29,-44.25 24.69,-29.55 37.76,-75.02 37.76,-136.32 0,-61.7 -12.34,-106.26 -37.04,-133.59 -23.96,-27.32 -64.63,-41.03 -121.28,-41.03 -56.65,0 -96.59,13.92 -122.01,41.64zm122.01 53.74c15.98,0 26.15,4.74 31.23,14.42 5.08,9.17 7.26,28.93 7.26,59.28l0 25.51c0,30.65 -2.18,50.41 -5.81,59.28 -4.35,8.87 -14.52,13.31 -31.23,13.31 -15.97,0 -26.87,-4.64 -31.22,-13.92 -5.09,-9.17 -7.27,-29.33 -7.27,-60.39l0 -24.4c0,-30.24 2.18,-50 6.54,-59.28 4.35,-9.18 14.52,-13.81 30.5,-13.81zm-1077.74 -89.83l-71.17 344.2 -132.18 0 -28.32 -139.64 -24.69 139.64 -132.18 0 -54.47 -242.27 58.1 -11.6 -114.02 0 -18.88 -90.13 160.5 -0.2 34.13 157.98 40.67 -157.98 105.31 0 42.85 157.98 29.04 -157.98 105.31 0zm275.97 344.2l-116.2 0 -11.62 -53.23 -61.73 0 -11.62 53.23 -111.84 0 71.9 -344.2 169.94 0 71.17 344.2zm-135.8 -124.72l-22.52 -115.23 -22.51 115.23 45.03 0zm420.49 -55.45c7.99,-13.31 11.62,-31.05 11.62,-53.13 0,-38.11 -10.17,-65.94 -30.51,-83.68 -21.06,-18.15 -52.29,-27.22 -95.13,-27.22l-204.08 0.2 18.88 90.13 99.5 0 -62.46 12.4 0 241.47 114.75 0 0 -118.67 8.71 0 34.14 118.67 123.46 0 -52.29 -145.79c15.25,-9.98 26.87,-21.47 33.41,-34.38zm-118.38 -13.31c-2.91,4.84 -9.44,7.26 -17.43,7.26l-13.8 0 0 -67.04 13.8 0c7.99,0 13.8,2.41 17.43,7.16 3.63,4.84 5.81,13.51 5.81,26.11 0,12.5 -2.18,21.37 -5.81,26.51zm336.25 85.9l-23.97 0 0 107.58 -116.2 0 0 -241.06 63.91 -12.81 -100.22 0 -18.88 -90.13 189.55 -0.2c3.63,0 6.54,0.1 9.44,0.2l2.91 0 0 0.1c39.21,1.51 68.26,10.69 87.14,27.42 21.07,18.45 31.23,49 31.23,91.45 0,42.44 -10.16,72.79 -29.77,90.84 -20.34,17.74 -51.57,26.61 -95.14,26.61zm-26.15 -145.89l26.15 0c2.18,1.42 3.63,3.33 5.08,5.75 3.63,5.85 5.81,15.83 5.81,29.95 0,14.01 -1.45,23.99 -5.08,29.84 -2.91,5.95 -8.72,8.87 -17.43,8.87l-14.53 0 0 -74.41zm628.93 253.47l-117.65 0 0 -344.2 117.65 0 0 93.66 -90.05 0 90.05 20.26 0 230.28zm227.31 0l124.19 0 0 -234.81 -68.99 -15.73 142.34 0 0 250.54 118.38 0 0 -250.54 80.62 0 37.75 -93.66 -427.75 0 0 140.24 -69 -140.24 -127.09 0 0 344.2 115.47 0 0 -135.81 74.08 135.81z"/>
 </g>
</svg>
